<svg xmlns="http://www.w3.org/2000/svg" width="1018" height="533" viewBox="0 0 1018 533"><defs><style>.cls-1{fill:#fff;}</style></defs><title>Asset 2</title><g id="Layer_2" data-name="Layer 2"><g id="Layer_1-2" data-name="Layer 1"><g id="ekvDW6.tif"><path class="cls-1" d="M42,0c.37.29.71.76,1.12.85,20.93,4.33,32.5,18.32,32.61,39.74q.33,61.74.49,123.48c0,9.81,0,19.63,0,31.08,47.32-33.76,98.34-45.75,153.77-33.86,55.71,12,97,44.29,125.62,93.6C395.28,188.4,453,153,531,155.28c51.68,1.52,95.37,22.85,130.42,60.84,72.24,78.34,64.27,201.53-18.08,270.52-45.08,37.76-97.62,51.43-155.51,40.64S387,483.64,357.12,432.73c-4.37,6.8-8.28,13.51-12.78,19.79q-46.65,65.18-125.8,78.31c-4.51.75-9,1.45-13.54,2.17H175a22.87,22.87,0,0,0-3.63-1c-18.46-2.05-36.55-6-53.44-13.69-74.05-33.93-113.22-92-115.46-173.2C.59,277,1.39,208.81,1,140.66Q.85,109.42.75,78.17L.84,32.88C3.35,17.3,12.26,7.17,27.07,2.05L33,0ZM522.63,455.3a112.62,112.62,0,1,0-112.7-112.6C409.89,405.28,459.91,455.26,522.63,455.3ZM77.77,345.1a112.71,112.71,0,0,0,112.4,112.66c62.17.1,112.83-50.5,112.9-112.78a112.65,112.65,0,1,0-225.3.12Z"/><path class="cls-1" d="M1018,496a17.36,17.36,0,0,0-1.44,3c-8.06,30.48-48.58,39-69.74,17.1-9.94-10.26-18.55-21.82-27.68-32.85q-31.85-38.52-63.61-77.09c-.53-.64-1.12-1.22-2-2.19-1.17,1.25-2.32,2.34-3.3,3.56q-41.94,52.19-83.85,104.42c-15.57,19.43-40.53,23.66-60,10-17.7-12.43-21.23-35.13-7.79-52.12,15.91-20.12,32.08-40,48.14-60q26.44-32.92,52.88-65.85c.62-.77,1.13-1.62,2-2.92-4-4.95-8.09-10-12.19-14.94q-45.79-55.51-91.62-111c-9.15-11.06-12-23.46-6.78-36.85,5.5-14,16.66-21.82,31.31-24.15,16.89-2.67,30.68,3.19,41.52,16.38q36,43.81,72.13,87.55c5.4,6.55,10.82,13.08,16.54,20,7.89-9.79,15.61-19.33,23.3-28.9,21.91-27.26,43.72-54.62,65.75-81.79,15.36-18.95,45-20.77,62.34-4.11,14.14,13.59,15.7,33.41,3.45,48.73q-49.17,61.47-98.57,122.74c-1.45,1.81-2.85,3.66-4.58,5.87,7.91,9.61,15.69,19.11,23.51,28.58,27,32.78,54.24,65.39,80.89,98.46,4.39,5.44,6.28,12.89,9.32,19.41Z"/><path class="cls-1" d="M0,33a3.87,3.87,0,0,1,.84-.12L.75,78.17A1.05,1.05,0,0,1,0,78Z"/></g></g></g></svg>
